HIERARCHY
ROOT root
{
	OFFSET	0	13.1	24.9
	CHANNELS 6  Xposition Yposition Zposition Xrotation Yrotation Zrotation
	JOINT spine_1
	{
		OFFSET	0	9.99999	0
		CHANNELS 3  Xrotation Yrotation Zrotation
		JOINT spine_2
		{
			OFFSET	0	112	-10
			CHANNELS 3  Xrotation Yrotation Zrotation
			JOINT spine_3
			{
				OFFSET	0	206.5	19.3
				CHANNELS 3  Xrotation Yrotation Zrotation
				JOINT spine_4
				{
					OFFSET	0	110.4	14.6
					CHANNELS 3  Xrotation Yrotation Zrotation
					JOINT neck_1
					{
						OFFSET	0	71.8	-50.3
						CHANNELS 3  Xrotation Yrotation Zrotation
						JOINT neck_2
						{
							OFFSET	0	86.2	-25.8
							CHANNELS 3  Xrotation Yrotation Zrotation
							JOINT head_ee
							{
								OFFSET	0	179.8	-8.7
								CHANNELS 3  Xrotation Yrotation Zrotation
								End Site
								{
									OFFSET	1	0	0
								}
							}
						}
					}
					JOINT left_clavicle
					{
						OFFSET	-43.2	22.4	-70.8
						CHANNELS 3  Xrotation Yrotation Zrotation
						JOINT left_shoulder
						{
							OFFSET	-93.9	-5.79999	48.7
							CHANNELS 3  Xrotation Yrotation Zrotation
							JOINT left_elbow
							{
								OFFSET	-291.4	-30.8	15.2
								CHANNELS 3  Xrotation Yrotation Zrotation
								JOINT left_lowarm_twist
								{
									OFFSET	-110.7	-3.89999	13.6
									CHANNELS 3  Xrotation Yrotation Zrotation
									JOINT left_hand
									{
										OFFSET	-110.7	-3.89999	13.6
										CHANNELS 3  Xrotation Yrotation Zrotation
										JOINT left_ee
										{
											OFFSET	-80.8	-5.10001	12.1
											CHANNELS 3  Xrotation Yrotation Zrotation
											End Site
											{
												OFFSET	1	0	0
											}
										}
									}
								}
							}
						}
					}
					JOINT right_clavicle
					{
						OFFSET	43.2	22.4	-70.8
						CHANNELS 3  Xrotation Yrotation Zrotation
						JOINT right_shoulder
						{
							OFFSET	93.9	-5.79999	48.7
							CHANNELS 3  Xrotation Yrotation Zrotation
							JOINT right_elbow
							{
								OFFSET	291.4	-30.8	15.2
								CHANNELS 3  Xrotation Yrotation Zrotation
								JOINT right_lowarm_twist
								{
									OFFSET	110.7	-3.89999	13.6
									CHANNELS 3  Xrotation Yrotation Zrotation
									JOINT right_hand
									{
										OFFSET	110.7	-3.89999	13.6
										CHANNELS 3  Xrotation Yrotation Zrotation
										JOINT right_ee
										{
											OFFSET	80.8	-5.10001	12.1
											CHANNELS 3  Xrotation Yrotation Zrotation
											End Site
											{
												OFFSET	1	0	0
											}
										}
									}
								}
							}
						}
					}
				}
			}
		}
	}
	JOINT left_hip
	{
		OFFSET	-82.8	-127.5	0.300001
		CHANNELS 3  Xrotation Yrotation Zrotation
		JOINT left_knee
		{
			OFFSET	-28.2	-396.7	2.2
			CHANNELS 3  Xrotation Yrotation Zrotation
			JOINT left_ankle
			{
				OFFSET	-11.7	-411.3	35.4
				CHANNELS 3  Xrotation Yrotation Zrotation
				JOINT left_toes
				{
					OFFSET	0	-60	-88.6
					CHANNELS 3  Xrotation Yrotation Zrotation
					JOINT left_foot_ee
					{
						OFFSET	-22.5	-16.5	-42.2
						CHANNELS 3  Xrotation Yrotation Zrotation
						End Site
						{
							OFFSET	1	0	0
						}
					}
				}
			}
		}
	}
	JOINT right_hip
	{
		OFFSET	82.8	-127.5	0.300001
		CHANNELS 3  Xrotation Yrotation Zrotation
		JOINT right_knee
		{
			OFFSET	28.2	-396.7	2.2
			CHANNELS 3  Xrotation Yrotation Zrotation
			JOINT right_ankle
			{
				OFFSET	11.7	-411.3	35.4
				CHANNELS 3  Xrotation Yrotation Zrotation
				JOINT right_toes
				{
					OFFSET	0	-60	-88.6
					CHANNELS 3  Xrotation Yrotation Zrotation
					JOINT right_foot_ee
					{
						OFFSET	22.5	-16.5	-42.2
						CHANNELS 3  Xrotation Yrotation Zrotation
						End Site
						{
							OFFSET	1	0	0
						}
					}
				}
			}
		}
	}
}
MOTION
Frames: 13
Frame Time: 0.02
3574.42 741.953 -1474.73 -2.26335578031 64.9918024292 0.562624739063 0.792459 0.257207 1.54895 0.79378 0.158134 1.56218 0.798519 -0.151983 1.56279 0.795123 0.096706 1.56718 -6.7445 22.0466 5.04378 -6.67583 37.4683 9.50896 -0.0 0.0 -0.0 -1.69104 24.2288 0.522635 6.76578 -3.15918 68.1116 3.48531 -59.9059 2.00884 72.3175 -2.98432 -8.11881 -0.694597 14.8455 1.76127 -0.0 0.0 -0.0 10.5227 -17.2468 -18.7875 -5.85832 11.9114 -67.3908 0.184845 5.23192 -0.00844535 -19.7124 1.09458 -2.25805 0.0798907 -29.0887 -11.8134 0.0 0.0 0.0 -5.25797 32.1646 -3.38718 -0.956894 0.0382163 0.141873 24.7434 -24.4812 -3.85428 8.19879 -0.0 -0.0 -0.0 0.0 -0.0 0.0447588 5.41213 4.37513 -12.2569 -0.307533 -1.85229 29.3938 10.9479 3.99973 -3.35509 0.0 0.0 0.0 0.0 0.0 
3574.42 741.953 -1474.73 -2.20540922439 64.2878716233 0.498499766028 0.792459 0.257207 1.54895 0.79378 0.158134 1.56218 0.798519 -0.151983 1.56279 0.795123 0.096706 1.56718 -6.7445 22.0466 5.04378 -6.67583 37.4683 9.50896 -0.0 0.0 -0.0 -1.69104 24.2288 0.522635 6.76578 -3.15918 68.1116 3.48531 -59.9059 2.00884 72.3175 -2.98432 -8.11881 -0.694597 14.8455 1.76127 -0.0 0.0 -0.0 10.5227 -17.2468 -18.7875 -5.85832 11.9114 -67.3908 0.184845 5.23192 -0.00844535 -19.7124 1.09458 -2.25805 0.0798907 -29.0887 -11.8134 0.0 0.0 0.0 -5.25797 32.1646 -3.38718 -0.956894 0.0382163 0.141873 24.7434 -24.4812 -3.85428 8.19879 -0.0 -0.0 -0.0 0.0 -0.0 0.0447588 5.41213 4.37513 -12.2569 -0.307533 -1.85229 29.3938 10.9479 3.99973 -3.35509 0.0 0.0 0.0 0.0 0.0 
3574.42 741.953 -1474.73 -2.12970408584 63.3034952188 0.414125909088 0.792459 0.257207 1.54895 0.79378 0.158134 1.56218 0.798519 -0.151983 1.56279 0.795123 0.096706 1.56718 -6.7445 22.0466 5.04378 -6.67583 37.4683 9.50896 -0.0 0.0 -0.0 -1.69104 24.2288 0.522635 6.76578 -3.15918 68.1116 3.48531 -59.9059 2.00884 72.3175 -2.98432 -8.11881 -0.694597 14.8455 1.76127 -0.0 0.0 -0.0 10.5227 -17.2468 -18.7875 -5.85832 11.9114 -67.3908 0.184845 5.23192 -0.00844535 -19.7124 1.09458 -2.25805 0.0798907 -29.0887 -11.8134 0.0 0.0 0.0 -5.25797 32.1646 -3.38718 -0.956894 0.0382163 0.141873 24.7434 -24.4812 -3.85428 8.19879 -0.0 -0.0 -0.0 0.0 -0.0 0.0447588 5.41213 4.37513 -12.2569 -0.307533 -1.85229 29.3938 10.9479 3.99973 -3.35509 0.0 0.0 0.0 0.0 0.0 
3574.42 741.953 -1474.73 -2.06667036671 62.4216648462 0.343296847728 0.792459 0.257207 1.54895 0.79378 0.158134 1.56218 0.798519 -0.151983 1.56279 0.795123 0.096706 1.56718 -6.7445 22.0466 5.04378 -6.67583 37.4683 9.50896 -0.0 0.0 -0.0 -1.69104 24.2288 0.522635 6.76578 -3.15918 68.1116 3.48531 -59.9059 2.00884 72.3175 -2.98432 -8.11881 -0.694597 14.8455 1.76127 -0.0 0.0 -0.0 10.5227 -17.2468 -18.7875 -5.85832 11.9114 -67.3908 0.184845 5.23192 -0.00844535 -19.7124 1.09458 -2.25805 0.0798907 -29.0887 -11.8134 0.0 0.0 0.0 -5.25797 32.1646 -3.38718 -0.956894 0.0382163 0.141873 24.7434 -24.4812 -3.85428 8.19879 -0.0 -0.0 -0.0 0.0 -0.0 0.0447588 5.41213 4.37513 -12.2569 -0.307533 -1.85229 29.3938 10.9479 3.99973 -3.35509 0.0 0.0 0.0 0.0 0.0 
3574.42 741.953 -1474.73 -1.99469293393 61.3368350844 0.261689391035 0.792459 0.257207 1.54895 0.79378 0.158134 1.56218 0.798519 -0.151983 1.56279 0.795123 0.096706 1.56718 -6.7445 22.0466 5.04378 -6.67583 37.4683 9.50896 -0.0 0.0 -0.0 -1.69104 24.2288 0.522635 6.76578 -3.15918 68.1116 3.48531 -59.9059 2.00884 72.3175 -2.98432 -8.11881 -0.694597 14.8455 1.76127 -0.0 0.0 -0.0 10.5227 -17.2468 -18.7875 -5.85832 11.9114 -67.3908 0.184845 5.23192 -0.00844535 -19.7124 1.09458 -2.25805 0.0798907 -29.0887 -11.8134 0.0 0.0 0.0 -5.25797 32.1646 -3.38718 -0.956894 0.0382163 0.141873 24.7434 -24.4812 -3.85428 8.19879 -0.0 -0.0 -0.0 0.0 -0.0 0.0447588 5.41213 4.37513 -12.2569 -0.307533 -1.85229 29.3938 10.9479 3.99973 -3.35509 0.0 0.0 0.0 0.0 0.0 
3574.42 741.953 -1474.73 -1.92241112723 60.1528883417 0.178844798415 0.792459 0.257207 1.54895 0.79378 0.158134 1.56218 0.798519 -0.151983 1.56279 0.795123 0.096706 1.56718 -6.7445 22.0466 5.04378 -6.67583 37.4683 9.50896 -0.0 0.0 -0.0 -1.69104 24.2288 0.522635 6.76578 -3.15918 68.1116 3.48531 -59.9059 2.00884 72.3175 -2.98432 -8.11881 -0.694597 14.8455 1.76127 -0.0 0.0 -0.0 10.5227 -17.2468 -18.7875 -5.85832 11.9114 -67.3908 0.184845 5.23192 -0.00844535 -19.7124 1.09458 -2.25805 0.0798907 -29.0887 -11.8134 0.0 0.0 0.0 -5.25797 32.1646 -3.38718 -0.956894 0.0382163 0.141873 24.7434 -24.4812 -3.85428 8.19879 -0.0 -0.0 -0.0 0.0 -0.0 0.0447588 5.41213 4.37513 -12.2569 -0.307533 -1.85229 29.3938 10.9479 3.99973 -3.35509 0.0 0.0 0.0 0.0 0.0 
3574.42 741.953 -1474.73 -1.8522897575 58.9008170584 0.0974898022683 0.792459 0.257207 1.54895 0.79378 0.158134 1.56218 0.798519 -0.151983 1.56279 0.795123 0.096706 1.56718 -6.7445 22.0466 5.04378 -6.67583 37.4683 9.50896 -0.0 0.0 -0.0 -1.69104 24.2288 0.522635 6.76578 -3.15918 68.1116 3.48531 -59.9059 2.00884 72.3175 -2.98432 -8.11881 -0.694597 14.8455 1.76127 -0.0 0.0 -0.0 10.5227 -17.2468 -18.7875 -5.85832 11.9114 -67.3908 0.184845 5.23192 -0.00844535 -19.7124 1.09458 -2.25805 0.0798907 -29.0887 -11.8134 0.0 0.0 0.0 -5.25797 32.1646 -3.38718 -0.956894 0.0382163 0.141873 24.7434 -24.4812 -3.85428 8.19879 -0.0 -0.0 -0.0 0.0 -0.0 0.0447588 5.41213 4.37513 -12.2569 -0.307533 -1.85229 29.3938 10.9479 3.99973 -3.35509 0.0 0.0 0.0 0.0 0.0 
3574.42 741.953 -1474.73 -1.76828806266 57.2448642281 -0.00147429557163 0.792459 0.257207 1.54895 0.79378 0.158134 1.56218 0.798519 -0.151983 1.56279 0.795123 0.096706 1.56718 -6.7445 22.0466 5.04378 -6.67583 37.4683 9.50896 -0.0 0.0 -0.0 -1.69104 24.2288 0.522635 6.76578 -3.15918 68.1116 3.48531 -59.9059 2.00884 72.3175 -2.98432 -8.11881 -0.694597 14.8455 1.76127 -0.0 0.0 -0.0 10.5227 -17.2468 -18.7875 -5.85832 11.9114 -67.3908 0.184845 5.23192 -0.00844535 -19.7124 1.09458 -2.25805 0.0798907 -29.0887 -11.8134 0.0 0.0 0.0 -5.25797 32.1646 -3.38718 -0.956894 0.0382163 0.141873 24.7434 -24.4812 -3.85428 8.19879 -0.0 -0.0 -0.0 0.0 -0.0 0.0447588 5.41213 4.37513 -12.2569 -0.307533 -1.85229 29.3938 10.9479 3.99973 -3.35509 0.0 0.0 0.0 0.0 0.0 
3574.42 741.953 -1474.73 -1.69089523665 55.5417063899 -0.0943886017105 0.792459 0.257207 1.54895 0.79378 0.158134 1.56218 0.798519 -0.151983 1.56279 0.795123 0.096706 1.56718 -6.7445 22.0466 5.04378 -6.67583 37.4683 9.50896 -0.0 0.0 -0.0 -1.69104 24.2288 0.522635 6.76578 -3.15918 68.1116 3.48531 -59.9059 2.00884 72.3175 -2.98432 -8.11881 -0.694597 14.8455 1.76127 -0.0 0.0 -0.0 10.5227 -17.2468 -18.7875 -5.85832 11.9114 -67.3908 0.184845 5.23192 -0.00844535 -19.7124 1.09458 -2.25805 0.0798907 -29.0887 -11.8134 0.0 0.0 0.0 -5.25797 32.1646 -3.38718 -0.956894 0.0382163 0.141873 24.7434 -24.4812 -3.85428 8.19879 -0.0 -0.0 -0.0 0.0 -0.0 0.0447588 5.41213 4.37513 -12.2569 -0.307533 -1.85229 29.3938 10.9479 3.99973 -3.35509 0.0 0.0 0.0 0.0 0.0 
3574.42 741.953 -1474.73 -1.57210013456 52.515330585 -0.241123143537 0.792459 0.257207 1.54895 0.79378 0.158134 1.56218 0.798519 -0.151983 1.56279 0.795123 0.096706 1.56718 -6.7445 22.0466 5.04378 -6.67583 37.4683 9.50896 -0.0 0.0 -0.0 -1.69104 24.2288 0.522635 6.76578 -3.15918 68.1116 3.48531 -59.9059 2.00884 72.3175 -2.98432 -8.11881 -0.694597 14.8455 1.76127 -0.0 0.0 -0.0 10.5227 -17.2468 -18.7875 -5.85832 11.9114 -67.3908 0.184845 5.23192 -0.00844535 -19.7124 1.09458 -2.25805 0.0798907 -29.0887 -11.8134 0.0 0.0 0.0 -5.25797 32.1646 -3.38718 -0.956894 0.0382163 0.141873 24.7434 -24.4812 -3.85428 8.19879 -0.0 -0.0 -0.0 0.0 -0.0 0.0447588 5.41213 4.37513 -12.2569 -0.307533 -1.85229 29.3938 10.9479 3.99973 -3.35509 0.0 0.0 0.0 0.0 0.0 
3574.42 741.953 -1474.73 -1.42941031262 47.988284878 -0.42656400957 0.792459 0.257207 1.54895 0.79378 0.158134 1.56218 0.798519 -0.151983 1.56279 0.795123 0.096706 1.56718 -6.7445 22.0466 5.04378 -6.67583 37.4683 9.50896 -0.0 0.0 -0.0 -1.69104 24.2288 0.522635 6.76578 -3.15918 68.1116 3.48531 -59.9059 2.00884 72.3175 -2.98432 -8.11881 -0.694597 14.8455 1.76127 -0.0 0.0 -0.0 10.5227 -17.2468 -18.7875 -5.85832 11.9114 -67.3908 0.184845 5.23192 -0.00844535 -19.7124 1.09458 -2.25805 0.0798907 -29.0887 -11.8134 0.0 0.0 0.0 -5.25797 32.1646 -3.38718 -0.956894 0.0382163 0.141873 24.7434 -24.4812 -3.85428 8.19879 -0.0 -0.0 -0.0 0.0 -0.0 0.0447588 5.41213 4.37513 -12.2569 -0.307533 -1.85229 29.3938 10.9479 3.99973 -3.35509 0.0 0.0 0.0 0.0 0.0 
3574.42 741.953 -1474.73 -1.33389890999 44.1765660009 -0.559083043377 0.792459 0.257207 1.54895 0.79378 0.158134 1.56218 0.798519 -0.151983 1.56279 0.795123 0.096706 1.56718 -6.7445 22.0466 5.04378 -6.67583 37.4683 9.50896 -0.0 0.0 -0.0 -1.69104 24.2288 0.522635 6.76578 -3.15918 68.1116 3.48531 -59.9059 2.00884 72.3175 -2.98432 -8.11881 -0.694597 14.8455 1.76127 -0.0 0.0 -0.0 10.5227 -17.2468 -18.7875 -5.85832 11.9114 -67.3908 0.184845 5.23192 -0.00844535 -19.7124 1.09458 -2.25805 0.0798907 -29.0887 -11.8134 0.0 0.0 0.0 -5.25797 32.1646 -3.38718 -0.956894 0.0382163 0.141873 24.7434 -24.4812 -3.85428 8.19879 -0.0 -0.0 -0.0 0.0 -0.0 0.0447588 5.41213 4.37513 -12.2569 -0.307533 -1.85229 29.3938 10.9479 3.99973 -3.35509 0.0 0.0 0.0 0.0 0.0 
3571.79967112 740.454 -1479.26625138 -1.82441946225 41.2452316474 -0.935052882042 0.993085 0.36554 1.60356 0.994477 0.262774 1.62357 1.00236 -0.0555621 1.64375 0.998647 0.2047 1.6319 -7.11026 20.6092 6.9766 -7.02668 33.4771 11.1953 -0.0 0.0 -0.0 -1.62163 23.5891 0.51571 5.66278 -2.02582 67.9202 3.56815 -60.4856 2.08073 73.5206 -3.11364 -8.20318 -0.735966 15.633 1.83957 -0.0 0.0 -0.0 10.6611 -16.412 -19.1648 -6.4408 11.7648 -67.1425 0.171581 4.85837 -0.00727895 -19.6957 1.09333 -2.25631 0.131717 -29.2757 -12.1616 0.0 0.0 0.0 -5.30721 33.3166 -2.76099 -0.837056 0.0335607 0.124071 25.4298 -24.9018 -3.96166 9.48084 -0.0 -0.0 -0.0 0.0 -0.0 -0.687213 7.11782 4.96003 -11.1945 -0.296648 -1.68964 28.5731 10.5896 3.90073 -3.34949 0.0 0.0 0.0 0.0 0.0 
